<?xml version="1.0" encoding="UTF-8"?>
<svg id="OBJECTS" xmlns="http://www.w3.org/2000/svg" viewBox="0 0 300 300">
  <defs>
    <style>
      .cls-1 {
        fill: #f4f4f4;
        stroke-width: 0px;
      }
    </style>
  </defs>
  <path class="cls-1" d="M81.06,80.09c7.67-11.31,14.46-21.89,21.86-32.01,4.17-5.7,9.83-5.58,13.94.03,7.42,10.12,14.2,20.72,21.13,30.93,9.88-2.44,21.48-5.91,33.31-8.03,9.13-1.63,13.51,2.55,13.46,12.76-.18,33.84-26.12,60.12-64.73,64.6-40.44,4.69-75.43-15.7-83.06-50.44-6.28-28.56-.86-29.52,24.51-25.3,7.25,1.21,14.03,5.26,19.58,7.44ZM109.89,134.44c22.79-21.97,22.78-58.96-.04-78.05-22.91,19.36-22.89,56.17.04,78.05ZM174.09,82.2c-15.97-1.37-34.57,5.93-37.21,14.71-3.96,13.15-7.43,26.44-11,39.31,25.98-.32,49.05-25.02,48.21-54.02ZM45.96,79.51c-2.04,30.94,22.01,56.76,48.86,56.72-3.68-10.51-9.2-21.03-10.7-32.1-1.3-9.59-5.79-14.54-13.48-17.48-7.6-2.91-15.67-4.59-24.68-7.14Z"/>
  <path class="cls-1" d="M110.39,237.38c16.88-.89,33.74-2.04,50.63-2.58,16.29-.53,32.58.52,47.83,6.74,6.8,2.77,12.73,7.64,19.16,11.37,2.29,1.33,4.86,2.82,7.38,3.01,10.53.75,20.93-.23,30.8-4.28,14.72-6.04,22.25-17.18,23.24-32.99.28-4.39-1.55-6.4-5.54-8.1-18.58-7.92-37.18-15.86-55.39-24.57-7.93-3.79-15.12-9.25-22.38-14.33-11.76-8.22-23.59-10.22-37.95-5.89-14.02,4.23-29.08,5.03-43.69,7.24-7.57,1.15-15.2,1.95-22.76,3.22-2.69.45-5.94,1.12-7.71,2.9-4.09,4.12-7.76,2.29-12.19.99-16.69-4.88-33.48-9.41-50.31-13.8-2.95-.77-6.26-.56-9.36-.26-10.45,1.01-15.09,10.86-8.76,19.33,2.49,3.33,6.29,6.07,10.05,8.01,12.84,6.64,26.14,12.43,38.86,19.28,12.41,6.68,24.28,14.37,36.5,21.4,3.51,2.02,7.44,3.31,11.18,4.93l.39-1.63ZM110.08,197.8c-.02.38-.04.75-.06,1.13-3.04-.72-6.26-1.04-9.06-2.3-2.16-.97-3.78-3.11-5.64-4.73,2-2.16,3.89-4.44,6.07-6.4.8-.72,2.28-.8,3.48-.95,8.47-1.08,16.98-1.9,25.42-3.19,13.76-2.1,27.86-3.18,41.08-7.15,12.01-3.61,21.43-1.52,30.67,5.76,2.73,2.15,5.52,4.25,8.46,6.08,20.66,12.87,42.84,22.63,65.56,31.17,3.91,1.47,4.58,3.15,3.71,6.87-2.17,9.28-7.62,16.13-16.45,18.8-8.21,2.49-17.01,3.06-25.57,4.28-1.2.17-2.88-.43-3.81-1.26-16.38-14.46-36.31-19.27-57.22-19.47-20.88-.2-41.77,1.51-62.66,2.2-2.99.1-6.68.12-8.92-1.44-24.04-16.75-50.76-28.47-76.84-41.38-2.31-1.14-4.92-2.36-6.4-4.3-1.25-1.63-1.76-4.55-1.22-6.53.32-1.19,3.3-2.38,5.04-2.32,3.8.13,7.72.6,11.32,1.75,14.27,4.57,28.43,9.49,42.65,14.23,3.74,1.25,6.64,2.63,7.53,7.38.48,2.57,3.51,5.24,6.06,6.72,6.59,3.83,13.75,5.33,21.57,4.47,9.34-1.02,18.77-1.53,28.16-1.53,3.83,0,7.88,1.42,11.41,3.09,2.91,1.37,5.49,3.13,7.71-.17,2.41-3.58.03-6.35-3.08-7.42-5.37-1.85-10.99-3.84-16.57-4.05-10.76-.42-21.57.36-32.36.64Z"/>
</svg>