<?xml version="1.0" encoding="UTF-8"?>
<svg id="OBJECTS" xmlns="http://www.w3.org/2000/svg" viewBox="0 0 300 300">
  <defs>
    <style>
      .cls-1 {
        fill: #f4f4f4;
        stroke-width: 0px;
      }
    </style>
  </defs>
  <path class="cls-1" d="M51.91,84.21c4.61.1,8.14,1.93,9.81,6.33,5.02,13.19,10.04,26.38,14.81,39.66,1.34,3.73.92,7.47-1.91,10.8-3.77,4.44-7.39,9.03-10.77,13.77-.85,1.19-1.22,3.46-.69,4.78,9.2,22.98,22.91,42.99,40.29,60.56,2.01,2.03,3.85,2.44,6.54,1.54,5.22-1.75,10.57-3.13,15.87-4.65,4.15-1.19,7.78-.47,11.06,2.56,9.93,9.17,20,18.18,29.93,27.36,5.33,4.93,5.54,10.18.99,15.81-7.04,8.72-15.49,15.71-25.29,21.15-4.01,2.22-7.68,2.26-11.72.04-62.24-34.18-100.38-85.96-113.92-155.73-1.08-5.56-2.21-11.18-2.41-16.81-.11-3.1.72-7.27,2.78-9.23,9.25-8.83,20.4-14.59,32.85-17.72.59-.15,1.22-.16,1.79-.23Z"/>
  <path class="cls-1" d="M252.6,248.88c-.86-7.64-1.62-14.74-2.46-21.83-.74-6.24-1.86-12.46-2.19-18.72-.13-2.48.77-5.58,2.33-7.49,18.71-22.95,26.76-49.32,24.06-78.54-4.85-52.56-46.12-90.73-92.48-96.04-42.36-4.85-76.4,10.14-101.98,44.27-.55.74-1.02,1.53-1.59,2.26-2.09,2.69-4.7,3.58-7.59,1.49-2.91-2.1-3.04-5.19-.93-7.67,6.84-8.06,13.23-16.72,21.12-23.64,22.79-19.98,49.89-29.39,80.09-28.48,56.13,1.69,101.16,41.79,111.81,93.31,7.36,35.62-.43,67.86-21.97,97.01-1.36,1.84-2.05,4.81-1.8,7.12,1.55,14.33,3.57,28.62,5.12,42.95.25,2.31-.39,5.9-1.92,6.9-1.76,1.15-5.29.82-7.5-.14-13.38-5.81-26.55-12.1-39.92-17.92-2.1-.91-4.99-.76-7.32-.25-4.92,1.09-9.69,2.87-14.58,4.15-3.58.94-6.65,0-7.5-3.99-.81-3.81,1.81-5.51,5.02-6.49,5.99-1.84,11.92-3.94,18-5.4,2.3-.55,5.21-.23,7.41.71,10.99,4.74,21.83,9.83,32.73,14.78,1.09.5,2.23.91,4.01,1.64Z"/>
  <path class="cls-1" d="M167.59,209.28c-43.1-.12-76.63-34.13-77.04-76.9-.38-39.27,31.8-77.11,77.58-77.05,41.97.06,76.45,34.83,76.48,76.92.02,42.72-34.4,77.15-77.02,77.03ZM167.97,66.06c-36.85-.01-66.9,29.66-66.97,66.14-.08,36.57,30,66.73,66.56,66.75,35.64.02,65.91-30.01,66.45-64.94.58-37.43-29.86-68.02-66.03-67.95Z"/>
  <path class="cls-1" d="M172.96,107c0,4.15-.01,8.31,0,12.46.02,5.51,2.06,7.51,7.71,7.52,8.61.02,17.23.03,25.84,0,3.78-.02,6.82.89,7.06,5.36.19,3.59-2.14,5.49-6.87,5.53-8.77.07-17.54-.11-26.3.12-1.88.05-4.03,1-5.52,2.2-4.54,3.62-10.69,3.69-14.69-.2-4.14-4.03-4.11-10.31-.3-15.02,1.2-1.48,2.05-3.67,2.1-5.57.22-8.61.09-17.23.12-25.84.01-3.63.67-6.93,5.25-7.18,3.7-.2,5.57,2.25,5.61,7.26.04,4.46,0,8.92,0,13.38Z"/>
</svg>