<?xml version="1.0" encoding="UTF-8"?>
<svg id="OBJECTS" xmlns="http://www.w3.org/2000/svg" viewBox="0 0 300 300">
  <defs>
    <style>
      .cls-1 {
        fill: #f4f4f4;
        stroke-width: 0px;
      }
    </style>
  </defs>
  <path class="cls-1" d="M101.07,45.86c-.84-4.23-1.74-8.3-2.43-12.41-.76-4.49.82-6.52,5.58-4.88,14.42,4.99,28.89,9.87,43.27,14.98,4.9,1.74,5.29,4.07,1.3,7.59-11.31,9.98-22.7,19.87-34.18,29.65-4.12,3.51-6.13,2.75-7.31-2.45-.97-4.26-1.69-8.57-2.53-12.91-33.95,12.01-71.44,60.94-53.48,119.07,16.92,54.77,82.16,88.35,143.13,56.81,2.73,4.79,5.48,9.62,8.76,15.36-32.05,17.17-65.05,20.38-98.59,7.28-43.96-17.17-70.47-49.95-74.93-96.93-5.34-56.2,20.78-95.96,71.4-121.16Z"/>
  <path class="cls-1" d="M146.38,175.69c-11.58.14-21.33-9.31-21.6-20.91-.26-11.46,8.51-21.44,19.99-21.51,4.99-.03,8.08-1.81,11.23-5.15,5.59-5.95,11.43-11.67,17.31-17.34,5.47-5.28,12.6-5.4,17.29-.52,4.6,4.8,4.4,11.41-.79,16.79-6.11,6.33-12.62,12.27-18.51,18.8-1.98,2.19-3.47,5.6-3.63,8.53-.66,11.9-9.62,21.17-21.29,21.31Z"/>
  <path class="cls-1" d="M212.2,96.7c-2.09-1.82-5.75-3.56-6.77-6.29-1.03-2.77-.61-7.48,1.19-9.65,5.45-6.55,11.68-12.51,18.02-18.25,3.67-3.33,8.24-3.05,12,.24,3.73,3.25,5.13,8.07,1.93,11.77-6.25,7.22-13.37,13.7-20.31,20.3-1.06,1.01-3.08,1.01-6.06,1.89Z"/>
  <path class="cls-1" d="M186.38,40.38c-2.29,7.92-4.48,17.07-7.67,25.85-1.7,4.66-6.35,5.88-11.1,4.38-4.53-1.43-7.27-4.99-6.31-9.55,1.9-8.95,4.25-17.86,7.18-26.52,1.47-4.35,5.74-6.1,10.35-4.94,4.78,1.2,7.28,4.59,7.56,10.79Z"/>
  <path class="cls-1" d="M236.91,169c10.94,3.15,20.3,5.36,29.27,8.62,4.71,1.71,5.71,6.58,4.17,11.2-1.47,4.42-5.07,7.13-9.69,6.14-8.75-1.87-17.47-4.1-25.94-6.95-4.61-1.55-7.02-6.11-5.12-10.68,1.39-3.34,4.96-5.77,7.3-8.33Z"/>
  <path class="cls-1" d="M237.26,140.12c-2.33-2.41-6.1-4.85-7.68-8.29-1.92-4.19.35-8.89,4.64-10.33,8.86-2.97,17.99-5.31,27.16-7.11,4.54-.89,8.04,2.1,9.17,6.75,1.16,4.78-.22,9.27-4.98,10.9-8.66,2.96-17.6,5.08-28.32,8.08Z"/>
  <path class="cls-1" d="M213.23,212.06c3.08,1.67,5.58,2.46,7.3,4.07,5.64,5.28,11.12,10.75,16.44,16.35,4.15,4.38,4.14,9.54.4,13.46-3.72,3.89-9.2,4.24-13.45.27-5.95-5.56-12-11.13-17.07-17.44-1.89-2.35-2.32-7.25-1.24-10.19.98-2.69,4.89-4.32,7.63-6.51Z"/>
</svg>