<?xml version="1.0" encoding="UTF-8"?>
<svg id="OBJECTS" xmlns="http://www.w3.org/2000/svg" viewBox="0 0 300 300">
  <defs>
    <style>
      .cls-1 {
        fill: #f4f4f4;
      }

      .cls-1, .cls-2 {
        stroke-width: 0px;
      }

      .cls-2 {
        fill: #f4f4f4;
      }
    </style>
  </defs>
  <g>
    <path class="cls-1" d="M149.34,213.94c-19.85,0-39.7-.11-59.54.09-4.07.04-5.22-1.4-5.03-5.15.36-7.48-.15-15.07.87-22.45,1.88-13.57,13.82-23.42,27.64-23.47,24.24-.08,48.48-.09,72.73,0,15.58.06,28.01,12.26,28.52,27.94.21,6.23-.07,12.48.08,18.71.08,3.27-1.06,4.41-4.44,4.39-20.27-.14-40.55-.07-60.82-.07Z"/>
    <path class="cls-1" d="M117.78,117.84c0-17.83,14.31-32.28,32.06-32.23,18.22.05,32.35,14.39,32.38,32.83.03,17.13-14.88,31.57-32.41,31.56-17.92,0-32.04-14.17-32.03-32.16Z"/>
  </g>
  <g>
    <path class="cls-2" d="M20.2,91c-3.19,0-5.77-2.59-5.77-5.77v-40.53c0-16.69,13.58-30.27,30.27-30.27h38.21c3.19,0,5.77,2.59,5.77,5.77s-2.59,5.77-5.77,5.77h-38.21c-10.32,0-18.72,8.4-18.72,18.72v40.53c0,3.19-2.59,5.77-5.77,5.77Z"/>
    <path class="cls-2" d="M76.47,285.57h-31.78c-16.69,0-30.27-13.58-30.27-30.27v-28.56c0-3.19,2.59-5.77,5.77-5.77s5.77,2.59,5.77,5.77v28.56c0,10.32,8.4,18.72,18.72,18.72h31.78c3.19,0,5.77,2.59,5.77,5.77s-2.59,5.77-5.77,5.77Z"/>
    <path class="cls-2" d="M255.31,285.57h-30.92c-3.19,0-5.77-2.59-5.77-5.77s2.59-5.77,5.77-5.77h30.92c10.32,0,18.72-8.4,18.72-18.72v-36.32c0-3.19,2.59-5.77,5.77-5.77s5.77,2.59,5.77,5.77v36.32c0,16.69-13.58,30.27-30.27,30.27Z"/>
    <path class="cls-2" d="M279.8,84.61c-3.19,0-5.77-2.59-5.77-5.77v-34.14c0-10.32-8.4-18.72-18.72-18.72h-32.53c-3.19,0-5.77-2.59-5.77-5.77s2.59-5.77,5.77-5.77h32.53c16.69,0,30.27,13.58,30.27,30.27v34.14c0,3.19-2.59,5.77-5.77,5.77Z"/>
  </g>
</svg>